<?xml version="1.0" encoding="UTF-8" standalone="no"?>
<svg xmlns="http://www.w3.org/2000/svg" width="225" height="225">
  <path style="fill:#ffffff;stroke:none" d="m 109.44844,36.690593 c 1.94735,15.3935 5.86245,31.26776 19.55,40.49434 8.69635,5.862535 22.2071,3.90388 27.08865,13.90566 4.4064,9.028527 5.2615,19.201497 2.95545,28.899997 -1.9091,8.0257 -6.29255,14.68035 -12.1975,20.366 -5.28615,5.0898 -11.6399,8.7312 -18.6966,10.7202 -24.36015,6.86545 -49.74625,-10.43205 -53.29483,-35.3362 C 72.004325,95.744428 89.298,73.299838 109.44844,71.540593 l -0.85,-5.95 c -6.14806,0.50218 -12.49976,2.39207 -17.85,5.494825 -29.99259,17.393465 -32.136545,61.457122 -2.55,80.611022 4.931615,3.1926 10.401101,5.36945 16.15,6.54075 25.67595,5.23345 54.281,-10.591 59.10475,-37.3966 3.0838,-17.13345 -2.5568,-35.171892 -12.0751,-49.299997 -4.55515,-6.760985 -10.6046,-15.190605 -18.12965,-18.7 13.18945,-0.765765 23.6232,13.676245 27.2,24.65 5.9891,-9.93361 1.02425,-23.47989 -7.65085,-29.95332 -12.1907,-9.09704 -28.78865,-9.697565 -43.34915,-10.84668 m 59.5,27.2 c 0,3.037475 0.0484,6.668182 -0.0694,9.956764 4.93239,6.764937 7.39812,13.914126 9.65657,21.493236 3.4901,11.709597 2.9376,23.988697 -0.3689,35.699997 -2.6979,9.55485 -8.2042,18.2223 -14.92855,25.4235 -6.3937,6.8476 -13.80995,12.1193 -22.3397,15.9613 -7.31765,3.29715 -15.77005,5.3261 -23.8,5.36435 -46.215177,0.22015 -81.671907,-48.4262 -61.898527,-91.799147 3.358435,-7.36661 7.74588,-13.802215 13.451845,-19.54932 10.6063,-10.68297 21.8722,-14.83267 35.696682,-19.55068 -0.6256,-2.219945 -1.55353,-5.829623 -2.544,-9.170531 -3.532554,0.738352 -9.080512,2.257311 -11.905997,3.122781 -10.981915,3.364045 -21.374525,9.294665 -29.746685,17.173825 -20.62865,19.413745 -27.453045,49.523972 -20.27148,76.423922 3.268335,12.24255 10.52963,23.4396 19.418165,32.29915 31.387865,31.2868 82.430447,27.6335 111.193597,-5.09915 17.5219,-19.941 21.7974,-50.2095 12.8605,-74.799997 -3.0141,-8.294215 -7.43495,-17.312715 -14.4041,-22.95 z" />
</svg>
