<?xml version="1.0" encoding="UTF-8" standalone="no"?>
<svg xmlns="http://www.w3.org/2000/svg" width="225" height="225">
  <circle style="fill:#0a3f5d;stroke:none" cx="112.5" cy="112.5" r="100" />
  <path style="fill:#ffffff;stroke:none" d="m 108.90993,23.312462 c 2.291,18.11 6.897,36.7856 23,47.6404 10.231,6.8971 26.126,4.5928 31.869,16.3596 5.184,10.6218 6.19,22.589998 3.477,33.999998 -2.246,9.442 -7.403,17.271 -14.35,23.96 -6.219,5.988 -13.694,10.272 -21.996,12.612 -28.659,8.077 -58.525001,-12.273 -62.699801,-41.572 -3.3521,-23.524898 16.9934,-49.930298 40.699801,-51.999998 l -1,-7 c -7.23301,0.5908 -14.705601,2.8142 -21.000001,6.4645 -35.2854,20.4629 -37.8077,72.302498 -3,94.836498 5.8019,3.756 12.23659,6.317 19.000001,7.695 30.207,6.157 63.86,-12.46 69.535,-43.996 3.628,-20.157 -3.008,-41.378698 -14.206,-57.999998 -5.359,-7.9541 -12.476,-17.8713 -21.329,-22 15.517,-0.9009 27.792,16.0897 32,29 7.046,-11.6866 1.205,-27.6234 -9.001,-35.2392 -14.342,-10.7024 -33.869,-11.4089 -50.999,-12.7608 m 70,32 c 0,3.5735 0.0569,7.84492 -0.0817,11.71384 5.80282,7.95875 8.70368,16.36956 11.36068,25.28616 4.106,13.775998 3.456,28.221998 -0.434,41.999998 -3.174,11.241 -9.652,21.438 -17.563,29.91 -7.522,8.056 -16.247,14.258 -26.282,18.778 -8.609,3.879 -18.553,6.266 -28,6.311 -54.370801,0.259 -96.084601,-56.972 -72.821801,-107.998998 3.9511,-8.6666 9.1128,-16.2379 15.8257,-22.9992 12.478,-12.5682 25.732,-17.4502 41.996101,-23.0008 -0.736,-2.6117 -1.82769,-6.85838 -2.992941,-10.78886 -4.15595,0.86865 -10.68296,2.65566 -14.00706,3.67386 -12.9199,3.9577 -25.1465,10.9349 -34.9961,20.2045 -24.269,22.8397 -32.2977,58.263498 -23.8488,89.910498 3.8451,14.403 12.3878,27.576 22.8449,37.999 36.9269,36.808 96.977001,32.51 130.816001,-5.999 20.614,-23.46 25.644,-59.07 15.13,-87.999998 -3.546,-9.7579 -8.747,-20.3679 -16.946,-27 z"/>
</svg>
